<svg xmlns="http://www.w3.org/2000/svg" viewBox="0 0 500 500"><g id="freepik--Shadow--inject-82"><ellipse id="freepik--path--inject-82" cx="250" cy="416.24" rx="193.89" ry="11.32" style="fill:#f5f5f5"></ellipse></g><g id="freepik--Character--inject-82"><g id="freepik--group--inject-82"><path d="M269.8,197.21l-5-3a7.13,7.13,0,0,0-1.34-1.82c-.72-.6-10.31-1.21-10.58-1s.09,7,.59,7.29,8.05.41,8.8.39a2.63,2.63,0,0,0,1.4-.54l4.65,3.43Z" style="fill:#e4897b"></path><path d="M314,205.15c-7.85,1.7-23.67,3.17-25.65,2.24S268,195.79,268,195.79l-3.56,4.13s14.44,12.27,23.73,15.63,31,2.88,31,2.88,3.14-3.08,2.59-7.23S314,205.15,314,205.15Z" style="fill:#263238"></path><polygon points="395.61 398.13 405.71 407.24 414.38 406.2 402.71 393.38 395.61 398.13" style="fill:#e4897b"></polygon><polygon points="251.97 398.31 240.79 406.06 232.33 403.94 245.53 392.7 251.97 398.31" style="fill:#e4897b"></polygon><path d="M365,181.42l-5.29-2.24a6.83,6.83,0,0,1-2.2,0c-.89-.22-6.89-7.47-6.9-7.79s5.57-3.92,6.11-3.72,4.95,6.13,5.37,6.74a2.61,2.61,0,0,1,.38,1.42l5.38,1.71Z" style="fill:#e4897b"></path><path d="M409.33,396.88l-8,7.74s-57.89-46.18-58.84-53.91,0-48.91,0-48.91-7.73,9.05-19.69,22.48c-19.2,21.59-49.29,54.49-75.65,79.34l-9.29-6.44C304.72,313.74,326,269.11,326,269.11l2.75-21,38.42-3.48s9.24,24.2,6.74,42.17-12,51.41-11,58.15S409.33,396.88,409.33,396.88Z" style="fill:#FF5D5D"></path><path d="M405.06,405.66h9.59a.68.68,0,0,1,.67.54l1.56,7a1.17,1.17,0,0,1-.9,1.38,1.06,1.06,0,0,1-.25,0c-3.11-.05-5.37-.24-9.26-.24-2.4,0-9.64.25-13,.25s-3.74-3.27-2.39-3.57c6.09-1.33,10.67-3.17,12.62-4.91A1.89,1.89,0,0,1,405.06,405.66Z" style="fill:#263238"></path><path d="M234,401.86l8.68,4.08a.7.7,0,0,1,.38.78l-1.59,7a1.16,1.16,0,0,1-1.4.86l-.24-.08c-2.79-1.37-4.75-2.5-8.28-4.16-2.17-1-8.83-3.88-11.83-5.29s-2-4.56-.64-4.25c6.07,1.39,11,1.67,13.51.92A2,2,0,0,1,234,401.86Z" style="fill:#263238"></path><polygon points="327.06 253.8 368.97 249.1 369.53 254.09 327.02 258.33 327.06 253.8"></polygon><rect x="354.24" y="248.42" width="1.51" height="8.91" transform="translate(-25.95 41.09) rotate(-6.39)" style="fill:#FF5D5D"></rect><rect x="333.03" y="250.8" width="1.51" height="8.91" transform="translate(-26.34 38.75) rotate(-6.39)" style="fill:#FF5D5D"></rect><rect x="338.6" y="251.2" width="7.8" height="5.62" transform="translate(-26.15 39.71) rotate(-6.39)" style="fill:#fff"></rect><path d="M327.12,254.48C322.65,222,314,205.15,314,205.15c19.8-7.64,44.66-11.53,44.66-11.53,6.92,17.73,9.63,43.08,10.54,56.66Z" style="fill:#263238"></path><path d="M344.15,196.44C342,200.83,333.28,203,333.28,203s-5.71.62-5.27-1.42c2.84-1.7,3.75-3.7,3.65-5.75a9.79,9.79,0,0,0-1-3.45.91.91,0,0,1-.07-.14c-.3-.62-.66-1.24-1-1.83l7.23-11.59c.51,4.45,1.89,11.69,4.89,15.54A7.08,7.08,0,0,0,344.15,196.44Z" style="fill:#e4897b"></path><path d="M341.7,194.32c-.2.42-.43.69-.69.76-4,1.1-7.68-.66-10.34-2.74a.91.91,0,0,1-.07-.14c-.3-.62-.66-1.24-1-1.83l7.23-11.59C337.32,183.23,338.7,190.47,341.7,194.32Z" style="opacity:0.2;isolation:isolate"></path><path d="M358.65,193.62s18.83-1.65,19.1-4.2-15.83-8.8-15.83-8.8l2.77-4.68s16.49,4.38,22.82,9.37,3.58,12.27-24.59,22.08C362.92,207.39,355.37,200.9,358.65,193.62Z" style="fill:#263238"></path><path d="M344.07,283.57,342.5,301.8s-7.73,9.05-19.69,22.48c12.69-20.49,16.12-34.6,16.12-34.6-4.14-5.53-4.57-14.37-4.57-14.37Z" style="opacity:0.30000000000000004;isolation:isolate"></path><ellipse cx="341.59" cy="226.69" rx="11.56" ry="12.53" style="fill:#fff"></ellipse><path d="M346.6,223.56c-.72-.58-1.59-.93-2.27-1.4a10.8,10.8,0,0,1-1.92-1.64,9.58,9.58,0,0,1-1.44-1.91h0l0,0a.84.84,0,0,0-.7-.37.54.54,0,0,0-.55.65l2.15,11.23a6.59,6.59,0,0,0-3.2-.78c-2.44,0-4.18,1.36-3.88,3s2.53,2.91,5,2.89,4.18-1.36,3.88-3a2.18,2.18,0,0,0-.33-.79l-1.87-10.56c.1.1.2.2.31.29a12.07,12.07,0,0,0,2.31,1.54c.84.44,1.66.65,2.39,1.12a8.68,8.68,0,0,1,2,1.66A8.48,8.48,0,0,0,346.6,223.56Z" style="fill:#FF5D5D"></path><path d="M347.76,217.07a1.52,1.52,0,0,1-1.07-.61c-8.31-9.08-4.56-36.55-4.4-37.72l.5.07c0,.29-3.88,28.41,4.27,37.32.34.36.62.5.85.41,2.52-1,1.86-21.75,1.58-30.6-.15-4.84-.16-5.53-.05-5.72.42-.73,3.07-2,3.6-2.28l.22.45a13.46,13.46,0,0,0-3.38,2.07c-.05.24,0,2.66.11,5.47.46,14.47.73,30-1.89,31.07A.8.8,0,0,1,347.76,217.07Z" style="fill:#FF5D5D"></path><g style="opacity:0.2;isolation:isolate"><path d="M347.76,217.07a1.52,1.52,0,0,1-1.07-.61c-8.31-9.08-4.56-36.55-4.4-37.72l.5.07c0,.29-3.88,28.41,4.27,37.32.34.36.62.5.85.41,2.52-1,1.86-21.75,1.58-30.6-.15-4.84-.16-5.53-.05-5.72.42-.73,3.07-2,3.6-2.28l.22.45a13.46,13.46,0,0,0-3.38,2.07c-.05.24,0,2.66.11,5.47.46,14.47.73,30-1.89,31.07A.8.8,0,0,1,347.76,217.07Z"></path></g><rect x="352.47" y="165.13" width="8.31" height="15.57" rx="0.74" transform="translate(332.9 568.54) rotate(-112.44)" style="fill:#FF5D5D"></rect><rect x="352.47" y="165.13" width="8.31" height="15.57" rx="0.74" transform="translate(332.9 568.54) rotate(-112.44)" style="fill:#fff;opacity:0.4"></rect><rect x="352.74" y="165.78" width="8.31" height="15.57" rx="0.74" transform="translate(332.67 569.68) rotate(-112.44)" style="fill:#FF5D5D"></rect><rect x="352.74" y="165.78" width="8.31" height="15.57" rx="0.74" transform="translate(332.67 569.68) rotate(-112.44)" style="fill:#fff;opacity:0.7000000000000001"></rect><rect x="353.22" y="166.91" width="7.27" height="13.61" transform="translate(332.48 569.86) rotate(-112.44)" style="fill:#FF5D5D"></rect><rect x="353.03" y="170.84" width="6" height="6.43" transform="translate(331.03 569.56) rotate(-112.44)" style="opacity:0.2;isolation:isolate"></rect><rect x="359.52" y="174.93" width="0.4" height="0.45" transform="translate(335.11 574.49) rotate(-112.44)" style="fill:#fff;opacity:0.4"></rect><rect x="358.8" y="173.98" width="0.4" height="1.45" transform="translate(334.53 573.2) rotate(-112.44)" style="fill:#fff;opacity:0.4"></rect><rect x="358.07" y="173.03" width="0.4" height="2.45" transform="translate(333.84 571.9) rotate(-112.42)" style="fill:#fff;opacity:0.4"></rect><rect x="358.27" y="172.7" width="0.4" height="1.45" transform="translate(334.98 570.94) rotate(-112.44)" style="fill:#fff;opacity:0.4"></rect><rect x="357.54" y="171.75" width="0.4" height="2.45" transform="translate(334.39 569.65) rotate(-112.44)" style="fill:#fff;opacity:0.4"></rect><rect x="356.35" y="170.49" width="0.4" height="4.45" transform="translate(332.99 568.2) rotate(-112.44)" style="fill:#fff;opacity:0.4"></rect><rect x="357.47" y="170.78" width="0.4" height="1.45" transform="translate(335.66 567.56) rotate(-112.44)" style="fill:#fff;opacity:0.4"></rect><rect x="357.67" y="170.45" width="0.4" height="0.45" transform="matrix(-0.38, -0.92, 0.92, -0.38, 336.61, 566.59)" style="fill:#fff;opacity:0.4"></rect><path d="M360.06,171.44a.88.88,0,1,1-.47,1.15A.88.88,0,0,1,360.06,171.44Z" style="fill:#fff"></path><rect x="360.35" y="172.01" width="0.25" height="0.87" transform="translate(338.73 571.45) rotate(-112.45)" style="fill:#FF5D5D"></rect><rect x="360.19" y="171.62" width="0.25" height="0.87" transform="translate(338.72 570.76) rotate(-112.43)" style="fill:#FF5D5D"></rect><path d="M359.25,169.48a.87.87,0,1,1,.67,1.61.87.87,0,1,1-.67-1.61Z" style="fill:#fff"></path><polygon points="359.14 170.36 359.95 170.03 359.39 169.83 359.14 170.36" style="fill:#FF5D5D"></polygon><polygon points="359.29 170.73 360.1 170.39 359.55 170.19 359.29 170.73" style="fill:#FF5D5D"></polygon><path d="M361.54,175a.88.88,0,1,0-1.14-.48A.87.87,0,0,0,361.54,175Z" style="fill:#fff"></path><polygon points="360.84 174.48 361.65 174.14 361.39 174.68 360.84 174.48" style="fill:#FF5D5D"></polygon><polygon points="360.69 174.11 361.5 173.78 361.24 174.31 360.69 174.11" style="fill:#FF5D5D"></polygon><path d="M344.73,171.17c1.94,3.36,1.44,7.29-1.12,8.77s-6.2-.06-8.14-3.42-1.45-7.29,1.11-8.76S342.79,167.81,344.73,171.17Z" style="fill:#263238"></path><path d="M344.73,171.17c1.94,3.36,1.44,7.29-1.12,8.77s-6.2-.06-8.14-3.42-1.45-7.29,1.11-8.76S342.79,167.81,344.73,171.17Z" style="fill:#fff;opacity:0.2;isolation:isolate"></path><path d="M342.13,172.67c1.35,2.34,1,5.07-.78,6.1s-4.31,0-5.66-2.38-1-5.06.77-6.09S340.78,170.34,342.13,172.67Z" style="fill:#FF5D5D"></path><path d="M335.15,161.15c3.72.75,7,8.09,4.4,14.52s-13.06-10.23-13.06-10.23S332.78,160.67,335.15,161.15Z" style="fill:#263238"></path><path d="M330.22,191.46a9.6,9.6,0,0,0,11.31-2.72,10.66,10.66,0,0,0,2.53-7.45c0-.37-.06-.75-.11-1.13-1.1-6.94-6.37-17-14.41-16.93a10.41,10.41,0,0,0-9.29,15.09C323.56,185.16,325.19,189.34,330.22,191.46Z" style="fill:#e4897b"></path><path d="M332.83,176.63c-.38.16-.91-.17-1.1-.75a.83.83,0,0,1-.06-.21.9.9,0,0,0,1,.55c.31-.13.43-.55.34-1a.54.54,0,0,1,.05.11C333.31,175.89,333.21,176.48,332.83,176.63Z" style="fill:#263238"></path><path d="M339.3,174c-.37.16-.91-.17-1.11-.75a1.4,1.4,0,0,1-.09-.29c.22.51.71.77,1,.62s.44-.58.33-1.06c0,.05,0,.1.07.16C339.78,173.21,339.67,173.81,339.3,174Z" style="fill:#263238"></path><path d="M336.25,174.34A22.16,22.16,0,0,0,341,178.1a3.58,3.58,0,0,1-2.54,1.65Z" style="fill:#de5753"></path><path d="M339.45,169.46a.41.41,0,0,1-.36.14,2.91,2.91,0,0,0-2.52.71.36.36,0,1,1-.53-.49h0a3.59,3.59,0,0,1,3.17-.94.36.36,0,0,1,.31.41h0A1.11,1.11,0,0,1,339.45,169.46Z" style="fill:#263238"></path><path d="M329.38,173.82a.3.3,0,0,1-.21,0,.35.35,0,0,1-.17-.48h0a3.6,3.6,0,0,1,2.66-2,.35.35,0,0,1,.4.32h0a.38.38,0,0,1-.32.4h0a2.91,2.91,0,0,0-2.08,1.6A.35.35,0,0,1,329.38,173.82Z" style="fill:#263238"></path><path d="M321.79,167.43l.6,1c-.74,1,.38,4.3,1.4,5.28,2.17,2.09,2.59,6.72,1.37,9.22,0,0-.58-1.08-1.39-.38s2.15,6.33,5.26,8.22c0,0-3.91-1.19-8.31-6.49-4.06-4.91-6.42-9.49-6.29-12.19Z" style="fill:#263238"></path><path d="M319.57,185.35a7.22,7.22,0,0,0,5.22,1.79c2.53-.17,2.95-2.64,1.55-4.59-1.27-1.72-4.12-3.77-6.32-2.62S317.82,183.77,319.57,185.35Z" style="fill:#e4897b"></path><path d="M338.78,181.74a19.71,19.71,0,0,0,.14,2.89l-.49.14c-2.22.62-3.45.17-4.15-.51a3,3,0,0,1-.72-1.21,3.19,3.19,0,0,1-.15-.79,10.79,10.79,0,0,0,4.61-.32A7.11,7.11,0,0,0,338.78,181.74Z" style="fill:#263238"></path><path d="M338,181.94l0,.86c-2.09.58-3.64.7-4.48.25a3.19,3.19,0,0,1-.15-.79A10.79,10.79,0,0,0,338,181.94Z" style="fill:#fff"></path><path d="M338.43,184.77c-2.22.62-3.45.17-4.15-.51a7.4,7.4,0,0,1,2.6-.2A2.8,2.8,0,0,1,338.43,184.77Z" style="fill:#de5753"></path><path d="M315.21,175.6c-1.55-1.29-3-4.56.63-9.8s14-9.69,18.44-8.5,4.11,7.32-1.88,11.07l1.88-2.77s-4.26,3.87-7.79,5.35a16.43,16.43,0,0,0,4.11-5.15s-6.65,4.69-10.41,6A9.08,9.08,0,0,0,315.21,175.6Z" style="fill:#263238"></path><path d="M326.43,180.14c1.94,3.37,1.44,7.29-1.12,8.77s-6.21,0-8.15-3.42-1.44-7.28,1.12-8.76S324.48,176.78,326.43,180.14Z" style="fill:#263238"></path><path d="M326.43,180.14c1.94,3.37,1.44,7.29-1.12,8.77s-6.21,0-8.15-3.42-1.44-7.28,1.12-8.76S324.48,176.78,326.43,180.14Z" style="fill:#fff;opacity:0.2;isolation:isolate"></path><path d="M320.45,179.75s-4-13.93,1.34-19.06a5.27,5.27,0,0,0-1.4.42c-.86.37-6.53,6.31-2.77,19.23Z" style="fill:#FF5D5D"></path><path d="M320.45,179.75s-4-13.93,1.34-19.06a5.27,5.27,0,0,0-1.4.42c-.86.37-6.53,6.31-2.77,19.23Z" style="opacity:0.2;isolation:isolate"></path><path d="M332.26,208.14a7.88,7.88,0,0,1-4.48-1.38c-6.62-4.48-6.31-19-6.3-19.67a.28.28,0,0,1,.26-.24.24.24,0,0,1,.24.26c0,.14-.31,14.91,6.08,19.23s13.8-3.39,13.88-3.46a.24.24,0,0,1,.35,0,.25.25,0,0,1,0,.35C342.24,203.28,337.51,208.14,332.26,208.14Z" style="fill:#FF5D5D"></path><g style="opacity:0.2;isolation:isolate"><path d="M332.26,208.14a7.88,7.88,0,0,1-4.48-1.38c-6.62-4.48-6.31-19-6.3-19.67a.28.28,0,0,1,.26-.24.24.24,0,0,1,.24.26c0,.14-.31,14.91,6.08,19.23s13.8-3.39,13.88-3.46a.24.24,0,0,1,.35,0,.25.25,0,0,1,0,.35C342.24,203.28,337.51,208.14,332.26,208.14Z"></path></g><path d="M323.82,181.65c1.35,2.33,1,5.06-.77,6.09s-4.32,0-5.67-2.37-1-5.07.78-6.1S322.47,179.31,323.82,181.65Z" style="fill:#FF5D5D"></path></g></g></svg>